<?xml version="1.0" encoding="utf-8"?>
<!-- Generator: Adobe Illustrator 21.0.0, SVG Export Plug-In . SVG Version: 6.00 Build 0)  -->
<svg version="1.1" id="Layer_1" xmlns="http://www.w3.org/2000/svg" xmlns:xlink="http://www.w3.org/1999/xlink" x="0px" y="0px"
	 viewBox="0 0 128 128" style="enable-background:new 0 0 128 128;" xml:space="preserve">
<style type="text/css">
	.st0{display:none;}
	.st1{display:inline;}
	.st2{clip-path:url(#SVGID_2_);}
	.st3{clip-path:url(#SVGID_4_);}
	.st4{fill:#333333;}
</style>
<g>
	<title>Circle X</title>
</g>
<g transform="scale(4)" class="st0">
	<g class="st1">
		<g>
			<defs>
				<path id="SVGID_1_" d="M0,0v32h32V0H0z M23.1,21L21,23.1l-5-5l-5,5L8.9,21l5-5l-5-5L11,8.9l5,5l5-5l2.1,2.1l-5,5L23.1,21z"/>
			</defs>
			<clipPath id="SVGID_2_">
				<use xlink:href="#SVGID_1_"  style="overflow:visible;"/>
			</clipPath>
			<circle class="st2" cx="16" cy="16" r="16"/>
		</g>
	</g>
</g>
<g transform="scale(8)" class="st0">
	<g class="st1">
		<g>
			<defs>
				<path id="SVGID_3_" d="M0,0v16h16V0H0z M11.4,10L10,11.4l-2-2l-2,2L4.6,10l2-2l-2-2L6,4.6l2,2l2-2L11.4,6l-2,2L11.4,10z"/>
			</defs>
			<clipPath id="SVGID_4_">
				<use xlink:href="#SVGID_3_"  style="overflow:visible;"/>
			</clipPath>
			<circle class="st3" cx="8" cy="8" r="8"/>
		</g>
	</g>
</g>
<circle class="st4" cx="64" cy="25.9" r="25.8"/>
<path class="st4" d="M105.1,118.7c0,13.1-82.3,11.8-82.3,0c0-36.3,18.4-65.8,41.1-65.8S105.1,82.3,105.1,118.7z"/>
</svg>
