<?xml version="1.0" encoding="utf-8"?>
<!-- Generator: Adobe Illustrator 21.0.0, SVG Export Plug-In . SVG Version: 6.00 Build 0)  -->
<svg version="1.1" id="Layer_1" xmlns="http://www.w3.org/2000/svg" xmlns:xlink="http://www.w3.org/1999/xlink" x="0px" y="0px"
	 viewBox="0 0 128 128" style="enable-background:new 0 0 128 128;" xml:space="preserve">
<style type="text/css">
	.st0{display:none;}
	.st1{display:inline;}
	.st2{clip-path:url(#SVGID_2_);}
	.st3{clip-path:url(#SVGID_4_);}
	.st4{fill:#333333;}
</style>
<g>
	<title>Circle X</title>
</g>
<g transform="scale(4)" class="st0">
	<g class="st1">
		<defs>
			<path id="SVGID_1_" d="M0,0v32h32V0H0z M23.1,21L21,23.1l-5-5l-5,5L8.9,21l5-5l-5-5L11,8.9l5,5l5-5l2.1,2.1l-5,5L23.1,21z"/>
		</defs>
		<clipPath id="SVGID_2_">
			<use xlink:href="#SVGID_1_"  style="overflow:visible;"/>
		</clipPath>
		<circle class="st2" cx="16" cy="16" r="16"/>
	</g>
</g>
<g transform="scale(8)" class="st0">
	<g class="st1">
		<defs>
			<path id="SVGID_3_" d="M0,0v16h16V0H0z M11.4,10L10,11.4l-2-2l-2,2L4.6,10l2-2l-2-2L6,4.6l2,2l2-2L11.4,6l-2,2L11.4,10z"/>
		</defs>
		<clipPath id="SVGID_4_">
			<use xlink:href="#SVGID_3_"  style="overflow:visible;"/>
		</clipPath>
		<circle class="st3" cx="8" cy="8" r="8"/>
	</g>
</g>
<path class="st4" d="M12.1,94.5c0,23.2,103.8,23.2,103.8,0s-23.2-42-51.9-42S12.1,71.3,12.1,94.5z"/>
<path class="st4" d="M123.7,55.3c-8.2,7.9-18.8,4.6-23.7-6.2C95.1,38.2,80.2,31,63.7,31C48.4,31,35,37.8,29.5,48
	c-4.2,8-17,17.3-25.9,7.3c-16.6-18.7,26.9-39.2,60-39.2S142.3,37.4,123.7,55.3z"/>
</svg>
